# xmcd
#
# Track frame offsets:
#	150
#	13216
#	28965
#	40724
#	58594
#	69407
#	81856
#	95460
#	111411
#	120140
#	135048
#	149743
#
# Disc length: 2203 seconds
#
# Revision: 0
# Processed by: cddbd v1.5.2PL0 Copyright (c) Steve Scherf et al.
# Submitted via: EasyCDDAExtractor 10.0.6.1
#
DISCID=9f08990c
DTITLE=Damascus Road - Higher Ground
DYEAR=1900
DGENRE=Bluegrass
TTITLE0=He's Coming Again
TTITLE1=Three Rusty Nails
TTITLE2=Bind up Your Heart
TTITLE3=Because Of Jesus
TTITLE4=Oh, How I Love Jesus
TTITLE5=The Potters Wheel
TTITLE6=Easter Morning Sonrise
TTITLE7=Him And Him Alone
TTITLE8=My Lord's Going To Set Me free
TTITLE9=I Doin't Know Why
TTITLE10=Higher Ground
TTITLE11=Sweet Heaven
EXTD=
EXTT0=
EXTT1=
EXTT2=
EXTT3=
EXTT4=
EXTT5=
EXTT6=
EXTT7=
EXTT8=
EXTT9=
EXTT10=
EXTT11=
PLAYORDER=
